Coordinates
version=1
nRows=6
nColumns=63
inDegrees=yes

Units are S.I. units (second, meters, Newtons, ...)
If the header above contains a line with 'inDegrees', this indicates whether rotational values are in degrees (yes) or radians (no).

endheader
time	pelvis_tilt	pelvis_list	pelvis_rotation	pelvis_tx	pelvis_ty	pelvis_tz	hip_flexion_r	hip_adduction_r	hip_rotation_r	knee_angle_r	knee_angle_r_beta	ankle_angle_r	subtalar_angle_r	mtp_angle_r	hip_flexion_l	hip_adduction_l	hip_rotation_l	knee_angle_l	knee_angle_l_beta	ankle_angle_l	subtalar_angle_l	mtp_angle_l	L5_S1_Flex_Ext	L5_S1_Lat_Bending	L5_S1_axial_rotation	L4_L5_Flex_Ext	L4_L5_Lat_Bending	L4_L5_axial_rotation	L3_L4_Flex_Ext	L3_L4_Lat_Bending	L3_L4_axial_rotation	L2_L3_Flex_Ext	L2_L3_Lat_Bending	L2_L3_axial_rotation	L1_L2_Flex_Ext	L1_L2_Lat_Bending	L1_L2_axial_rotation	L1_T12_Flex_Ext	L1_T12_Lat_Bending	L1_T12_axial_rotation	Abs_r3	Abs_r2	Abs_r1	Abs_t1	Abs_t2	neck_flexion	neck_bending	neck_rotation	arm_flex_r	arm_add_r	arm_rot_r	elbow_flex_r	pro_sup_r	wrist_flex_r	wrist_dev_r	arm_flex_l	arm_add_l	arm_rot_l	elbow_flex_l	pro_sup_l	wrist_flex_l	wrist_dev_l
1.566667	-2.967431	-5.782342	93.640459	0.226674	1.003489	0.497832	5.858627	-4.175711	-13.631767	10.895012	0.190154	21.231309	14.615158	0.000000	4.299927	3.672530	-8.965431	4.448595	0.077643	16.161106	1.586887	0.000000	0.091435	-0.400839	0.592348	0.169804	-0.533116	0.629370	0.150219	-0.974601	0.629370	0.104501	-0.974601	0.518305	0.084907	-0.817392	0.481283	0.052246	-0.620900	0.444261	0.653112	-4.534376	3.294464	0.000000	0.000000	26.107232	3.351415	4.330384	-1.826535	-10.884318	27.531809	81.392161	84.535945	30.124557	9.209964	1.757898	-20.885804	35.655838	83.526750	79.376486	28.074715	7.374420
1.583333	-3.024331	-5.687913	93.680583	0.227077	1.003415	0.496724	5.639940	-4.177668	-13.612585	10.827997	0.188984	21.220418	14.468763	0.000000	4.089013	3.703247	-9.071115	4.423436	0.077204	16.276356	1.867913	0.000000	0.088858	-0.416684	0.561477	0.165018	-0.554190	0.596569	0.145985	-1.013125	0.596569	0.101556	-1.013125	0.491292	0.082514	-0.849702	0.456200	0.050774	-0.645443	0.421108	0.634705	-4.713612	3.122766	0.000000	0.000000	25.870665	3.396592	4.134130	-3.429140	-10.991942	25.206717	86.309342	84.298072	29.509727	7.437551	-0.050805	-21.272966	32.135481	88.264155	81.561183	30.567761	6.581836
1.600000	-3.083777	-5.576789	93.793251	0.227450	1.003386	0.495612	5.368490	-4.184323	-13.732339	10.713292	0.186982	21.144778	14.416252	0.000000	3.891393	3.726811	-9.211579	4.443346	0.077551	16.438262	2.315349	0.000000	0.084285	-0.433903	0.523874	0.156527	-0.577091	0.556616	0.138473	-1.054992	0.556616	0.096330	-1.054992	0.458389	0.078267	-0.884816	0.425647	0.048161	-0.672116	0.392905	0.602043	-4.908401	2.913628	0.000000	0.000000	25.607855	3.433878	3.886997	-4.966009	-11.209012	22.987630	91.331338	84.165487	28.397987	5.856864	-1.571773	-21.510578	29.366250	93.121943	83.437405	32.247963	5.617596
1.616667	-3.135442	-5.446366	93.962138	0.227758	1.003391	0.494497	5.052252	-4.184684	-13.935615	10.566443	0.184419	21.026054	14.398201	0.000000	3.702898	3.735206	-9.369640	4.502397	0.078582	16.646961	2.885912	0.000000	0.077632	-0.449353	0.480424	0.144171	-0.597639	0.510450	0.127542	-1.092556	0.510450	0.088726	-1.092556	0.420371	0.072089	-0.916320	0.390344	0.044359	-0.696047	0.360318	0.554519	-5.083167	2.671972	0.000000	0.000000	25.295180	3.464704	3.687448	-6.305197	-11.619867	21.089331	96.480754	84.181325	26.228511	5.069516	-2.867963	-21.601541	27.226592	98.031113	85.092563	33.417058	4.542238
1.633333	-3.181901	-5.308562	94.178395	0.228017	1.003403	0.493437	4.712535	-4.181416	-14.203280	10.393807	0.181406	20.877238	14.407455	0.000000	3.540609	3.731069	-9.543807	4.601003	0.080303	16.886834	3.546319	0.000000	0.069405	-0.462995	0.427943	0.128893	-0.615784	0.454689	0.114026	-1.125727	0.454689	0.079323	-1.125727	0.374450	0.064450	-0.944140	0.347704	0.039658	-0.717180	0.320957	0.495755	-5.237498	2.380090	0.000000	0.000000	24.975475	3.497669	3.589371	-7.375531	-12.243651	19.576778	101.685887	84.232764	23.133738	5.235650	-4.021927	-21.644628	25.663591	102.939989	86.141578	34.135243	3.340302
1.650000	-3.216687	-5.157316	94.418934	0.228212	1.003404	0.492512	4.363308	-4.172581	-14.522699	10.219676	0.178367	20.722242	14.458042	0.000000	3.407047	3.705052	-9.785868	4.755338	0.082996	17.173572	4.314038	0.000000	0.057372	-0.472252	0.365196	0.106546	-0.628095	0.388020	0.094257	-1.148232	0.388020	0.065571	-1.148232	0.319546	0.053276	-0.963015	0.296722	0.032783	-0.731518	0.273897	0.409805	-5.342204	2.031109	0.000000	0.000000	24.682175	3.514393	3.649678	-8.044611	-13.215432	18.881272	106.964367	84.472199	17.933613	6.499246	-5.105741	-21.678855	24.565470	107.807589	86.387212	34.624178	2.137014
